[img]http://img854.imageshack.us/img854/8323/darkex.jpg[/img]
[code]
Dont Be Afraid Of The Dark 2011 DVDRiP XviD AC3-26K

Imdb: 
http://www.imdb.com/title/tt1270761/

Plot:
A young girl sent to live with her father and his new girlfriend discovers creatures in her new home 

who want to claim her as one of their own.

Sources:
SIC THNXS MAN!

Notes:
Encoded the video added a few filters to make it look nice :)
tagged as 2011 becasue dvdrip cam out in 2011 so enjoy!

Greetz:
To all the people who have helped me :P you know who you are

Anything to offer email us @: 26k@hushmail.me

Video
ID                                       : 0
Format                                   : MPEG-4 Visual
Format profile                           : Advanced Simple@L5
Format settings, BVOP                    : 2
Format settings, QPel                    : No
Format settings, GMC                     : No warppoints
Format settings, Matrix                  : Default (H.263)
Codec ID                                 : XVID
Codec ID/Hint                            : XviD
Duration                                 : 1h 39mn
Bit rate                                 : 1 700 Kbps
Width                                    : 720 pixels
Height                                   : 384 pixels
Display aspect ratio                     : 1.875
Frame rate                               : 23.976 fps
Color space                              : YUV
Chroma subsampling                       : 4:2:0
Bit depth                                : 8 bits
Scan type                                : Progressive
Compression mode                         : Lossy
Bits/(Pixel*Frame)                       : 0.256
Stream size                              : 1.18 GiB (79%)
Writing library                          : XviD 63

Audio
ID                                       : 1
Format                                   : AC-3
Format/Info                              : Audio Coding 3
Mode extension                           : CM (complete main)
Codec ID                                 : 2000
Duration                                 : 1h 39mn
Bit rate mode                            : Constant
Bit rate                                 : 448 Kbps
Channel(s)                               : 6 channels
Channel positions                        : Front: L C R, Side: L R, LFE
Sampling rate                            : 48.0 KHz
Bit depth                                : 16 bits
Compression mode                         : Lossy
Stream size                              : 319 MiB (21%)
Alignment                                : Aligned on interleaves
Interleave, duration                     : 42 ms (1.00 video frame)

[/code]
Screens:
[img]http://img269.imageshack.us/img269/8894/vlcsnap2011121118h01m49.png[/img]
[img]http://img266.imageshack.us/img266/2558/vlcsnap2011121118h01m53.png[/img]
[img]http://img857.imageshack.us/img857/442/vlcsnap2011121118h02m03.png[/img]
[img]http://img843.imageshack.us/img843/570/vlcsnap2011121118h02m07.png[/img]
[img]http://img62.imageshack.us/img62/8606/vlcsnap2011121118h02m18.png[/img]

[img]http://img851.imageshack.us/img851/5503/26ks.jpg[/img]#
Thank you smallz for banner!
